<svg width="21" height="16" viewBox="0 0 21 16" fill="none" xmlns="http://www.w3.org/2000/svg">
<path d="M4.18141 16L5.69188 12.25C5.84292 11.8667 6.08628 11.5623 6.42193 11.337C6.75759 11.1117 7.13521 10.9993 7.55478 11H9.21629V6.975C6.6485 6.89167 4.49592 6.51667 2.75855 5.85C1.02118 5.18333 0.152832 4.4 0.153504 3.5C0.153504 2.53333 1.13531 1.70833 3.09891 1.025C5.06252 0.341667 7.4373 0 10.2233 0C13.026 0 15.4052 0.341667 17.3607 1.025C19.3163 1.70833 20.2937 2.53333 20.293 3.5C20.293 4.4 19.4244 5.18333 17.687 5.85C15.9496 6.51667 13.7974 6.89167 11.2302 6.975V11H12.8918C13.2945 11 13.6681 11.1127 14.0125 11.338C14.3569 11.5633 14.6043 11.8673 14.7547 12.25L16.2651 16H14.2512L13.0428 13H7.40374L6.19536 16H4.18141ZM10.2233 5C11.8512 5 13.3869 4.85833 14.8302 4.575C16.2735 4.29167 17.3308 3.93333 18.0022 3.5C17.3308 3.06667 16.2735 2.70833 14.8302 2.425C13.3869 2.14167 11.8512 2 10.2233 2C8.59532 2 7.05969 2.14167 5.61635 2.425C4.17302 2.70833 3.11569 3.06667 2.44438 3.5C3.11569 3.93333 4.17302 4.29167 5.61635 4.575C7.05969 4.85833 8.59532 5 10.2233 5Z" fill="#FF724C"/>
</svg>
