<svg width="31" height="31" viewBox="0 0 31 31" fill="none" xmlns="http://www.w3.org/2000/svg">
<path d="M24.9266 12.3561H6.07342C5.69195 12.3569 5.31557 12.4437 4.97229 12.6101C4.62901 12.7765 4.32768 13.0181 4.09072 13.3171C3.85533 13.6157 3.69082 13.9638 3.6096 14.3352C3.52838 14.7067 3.53256 15.0917 3.62184 15.4613L5.6433 23.7383C5.93545 24.8049 6.57101 25.7456 7.45163 26.4146C8.33255 27.085 9.41109 27.4479 10.5206 27.4479H20.4768C21.5863 27.4479 22.6649 27.085 23.5458 26.4146C24.4264 25.7456 25.062 24.8049 25.3541 23.7383L27.3756 15.4626C27.5117 14.9046 27.452 14.3169 27.2065 13.7977C26.961 13.2785 26.5446 12.8594 26.0271 12.6106C25.6833 12.4437 25.3062 12.3567 24.924 12.3561M10.4457 17.3858V22.4169M15.5 17.3858V22.4169M20.5543 17.3858V22.4169M24.3453 12.3561C24.3449 11.1988 24.1158 10.053 23.6711 8.98461C23.2264 7.91617 22.575 6.94614 21.7543 6.13026C20.0922 4.47805 17.8436 3.55111 15.5 3.55209C13.1564 3.55111 10.9078 4.47805 9.24576 6.13026C8.42524 6.94625 7.77406 7.91632 7.32962 8.98476C6.88518 10.0532 6.65624 11.1989 6.65597 12.3561" stroke="#2A2C41" stroke-width="1.5" stroke-linecap="round" stroke-linejoin="round"/>
</svg>
