<svg width="19" height="16" viewBox="0 0 19 16" fill="none" xmlns="http://www.w3.org/2000/svg">
<path d="M18.5 3.92627C18.5003 4.08558 18.4587 4.24247 18.379 4.38281C18.2992 4.52314 18.1838 4.64251 18.0431 4.73016C17.9024 4.81781 17.7409 4.871 17.573 4.88492C17.4052 4.89884 17.2363 4.87306 17.0816 4.8099L14.5509 10.5827H4.43755L1.90882 4.81259C1.68029 4.90329 1.42458 4.91185 1.18985 4.83666C0.955112 4.76147 0.757548 4.60772 0.63436 4.40437C0.511173 4.20101 0.470863 3.96208 0.521022 3.73257C0.571182 3.50306 0.708348 3.29882 0.906691 3.1583C1.10503 3.01777 1.35087 2.95067 1.59789 2.96963C1.84492 2.98859 2.07609 3.0923 2.24787 3.26123C2.41965 3.43016 2.52019 3.65265 2.53055 3.8868C2.54092 4.12095 2.46039 4.35061 2.30413 4.53252L5.83884 7.26795L6.6888 2.41179C6.44952 2.37163 6.23341 2.25169 6.07967 2.07373C5.92593 1.89577 5.84476 1.67158 5.85089 1.44186C5.85702 1.21214 5.95004 0.992114 6.11307 0.821711C6.27611 0.651308 6.49835 0.541824 6.73946 0.513131C6.98056 0.484438 7.22456 0.538437 7.42716 0.665327C7.62976 0.792218 7.77754 0.983591 7.84367 1.20471C7.9098 1.42583 7.88991 1.66204 7.78759 1.87048C7.68528 2.07891 7.50733 2.24575 7.28604 2.34071L9.49259 6.83574L11.7036 2.32919C11.4837 2.2311 11.3082 2.06165 11.2092 1.85164C11.1102 1.64163 11.0941 1.40499 11.1639 1.18472C11.2337 0.96446 11.3848 0.775189 11.5897 0.651307C11.7945 0.527425 12.0396 0.477154 12.2803 0.509629C12.5211 0.542105 12.7415 0.655171 12.9015 0.828282C13.0616 1.00139 13.1507 1.22306 13.1526 1.453C13.1545 1.68294 13.0691 1.90589 12.9119 2.08133C12.7547 2.25678 12.5361 2.37308 12.296 2.4091L13.1463 7.26603L16.6916 4.52675C16.5901 4.40697 16.5205 4.26593 16.4885 4.11545C16.4565 3.96497 16.4631 3.80943 16.5078 3.66186C16.5524 3.5143 16.6339 3.37901 16.7452 3.26732C16.8566 3.15564 16.9946 3.07082 17.1477 3.01996C17.3009 2.96911 17.4647 2.9537 17.6255 2.97503C17.7862 2.99637 17.9392 3.05382 18.0716 3.14258C18.2041 3.23133 18.3121 3.34881 18.3866 3.48516C18.4611 3.62152 18.5 3.77277 18.5 3.92627ZM15.5885 13.1949H3.39989V15.5H15.5885V13.1949ZM14.4611 11.1971H4.53872V12.5802H14.4611V11.1971Z" fill="#F2B200"/>
</svg>
