<svg width="36" height="36" viewBox="0 0 36 36" fill="none" xmlns="http://www.w3.org/2000/svg">
<path d="M32.0085 4.98277C32.7941 4.98277 33.4309 4.34593 33.4309 3.56035C33.4309 2.77478 32.7941 2.13794 32.0085 2.13794C31.2229 2.13794 30.5861 2.77478 30.5861 3.56035C30.5861 4.34593 31.2229 4.98277 32.0085 4.98277Z" stroke="#4C241D" stroke-width="2.68449" stroke-linecap="round" stroke-linejoin="round"/>
<path d="M13.2328 25.4655C19.9887 25.4655 25.4655 19.9887 25.4655 13.2328C25.4655 6.47679 19.9887 1 13.2328 1C6.47679 1 1 6.47679 1 13.2328C1 19.9887 6.47679 25.4655 13.2328 25.4655Z" fill="#E5EFEF"/>
<path d="M12.2868 3.65308L10.1964 5.74346" stroke="#4C241D" stroke-width="2.68449" stroke-linecap="round" stroke-linejoin="round"/>
<path d="M10.1964 3.65308L12.2868 5.74346" stroke="#4C241D" stroke-width="2.68449" stroke-linecap="round" stroke-linejoin="round"/>
<path d="M8.96533 8.39654C9.27956 8.39654 9.53429 8.1418 9.53429 7.82757C9.53429 7.51334 9.27956 7.25861 8.96533 7.25861C8.6511 7.25861 8.39636 7.51334 8.39636 7.82757C8.39636 8.1418 8.6511 8.39654 8.96533 8.39654Z" fill="#4C241D"/>
<path d="M4.27466 19.2069C5.51102 25.6129 9.29692 30.6528 14.1041 32.2931H11.81V34H23.1893V32.2931H20.8953C25.7025 30.6528 29.4867 25.6129 30.7247 19.2069" fill="white"/>
<path d="M4.27466 19.2069C5.51102 25.6129 9.29692 30.6528 14.1041 32.2931H11.81V34H23.1893V32.2931H20.8953C25.7025 30.6528 29.4867 25.6129 30.7247 19.2069" stroke="#4C241D" stroke-width="2.68449" stroke-linecap="round" stroke-linejoin="round"/>
<path d="M13.5173 17.5C15.4027 17.5 16.9311 15.9716 16.9311 14.0862C16.9311 12.2008 15.4027 10.6724 13.5173 10.6724C11.6319 10.6724 10.1035 12.2008 10.1035 14.0862C10.1035 15.9716 11.6319 17.5 13.5173 17.5Z" fill="#BF7E68" stroke="#4C241D" stroke-width="2.68449" stroke-linecap="round" stroke-linejoin="round"/>
<path d="M17.7842 15.2241C20.1409 15.2241 22.0515 13.3136 22.0515 10.9569C22.0515 8.60015 20.1409 6.68964 17.7842 6.68964C15.4275 6.68964 13.517 8.60015 13.517 10.9569C13.517 13.3136 15.4275 15.2241 17.7842 15.2241Z" fill="#F4AEAB" stroke="#4C241D" stroke-width="2.68449" stroke-linecap="round" stroke-linejoin="round"/>
<path d="M22.0514 17.5C23.9368 17.5 25.4652 15.9716 25.4652 14.0862C25.4652 12.2008 23.9368 10.6724 22.0514 10.6724C20.166 10.6724 18.6376 12.2008 18.6376 14.0862C18.6376 15.9716 20.166 17.5 22.0514 17.5Z" fill="#E2E2E2" stroke="#4C241D" stroke-width="2.68449" stroke-linecap="round" stroke-linejoin="round"/>
<path d="M13.5172 17.5C13.5172 16.5946 13.1575 15.7263 12.5173 15.0861C11.8771 14.4458 11.0088 14.0862 10.1034 14.0862C9.19797 14.0862 8.32966 14.4458 7.68945 15.0861C7.04924 15.7263 6.68958 16.5946 6.68958 17.5H13.5172Z" fill="#77A052" stroke="#4C241D" stroke-width="2.68449" stroke-linecap="round" stroke-linejoin="round"/>
<path d="M20.9135 17.5C20.9135 16.5946 20.5539 15.7263 19.9136 15.0861C19.2734 14.4458 18.4051 14.0862 17.4997 14.0862C16.5943 14.0862 15.726 14.4458 15.0858 15.0861C14.4456 15.7263 14.0859 16.5946 14.0859 17.5H20.9135Z" fill="#FFCE56" stroke="#4C241D" stroke-width="2.68449" stroke-linecap="round" stroke-linejoin="round"/>
<path d="M28.3104 17.5C28.3104 16.5946 27.9507 15.7263 27.3105 15.0861C26.6703 14.4458 25.802 14.0862 24.8966 14.0862C23.9912 14.0862 23.1229 14.4458 22.4827 15.0861C21.8425 15.7263 21.4828 16.5946 21.4828 17.5H28.3104Z" fill="#816982" stroke="#4C241D" stroke-width="2.68449" stroke-linecap="round" stroke-linejoin="round"/>
<path d="M33.9997 34C33.9997 33.0946 33.64 32.2263 32.9998 31.5861C32.3596 30.9458 31.4913 30.5862 30.5859 30.5862C29.6805 30.5862 28.8122 30.9458 28.172 31.5861C27.5318 32.2263 27.1721 33.0946 27.1721 34H33.9997Z" fill="#E66353" stroke="#4C241D" stroke-width="2.68449" stroke-linecap="round" stroke-linejoin="round"/>
<path d="M15.0935 22.7749L16.5768 22.9359L17.5116 21.7729L18.4464 22.9359L19.9297 22.7749L19.7681 24.2582L20.9311 25.193L19.7681 26.1278L19.9297 27.6111L18.4464 27.4495L17.5116 28.6125L16.5768 27.4495L15.0935 27.6111L15.2545 26.1278L14.0916 25.193L15.2545 24.2582L15.0935 22.7749Z" fill="#FFCE56" stroke="#4C241D" stroke-width="2.68449" stroke-linecap="round" stroke-linejoin="round"/>
<path d="M7.70219 19.2069H4.12908C3.90273 19.2069 3.68566 19.117 3.5256 18.9569C3.36555 18.7969 3.27563 18.5798 3.27563 18.3534C3.27563 18.1271 3.36555 17.91 3.5256 17.75C3.68566 17.5899 3.90273 17.5 4.12908 17.5H30.8705C31.0968 17.5 31.3139 17.5899 31.4739 17.75C31.634 17.91 31.7239 18.1271 31.7239 18.3534C31.7239 18.5798 31.634 18.7969 31.4739 18.9569C31.3139 19.117 31.0968 19.2069 30.8705 19.2069H11.8101" fill="white"/>
<path d="M7.70219 19.2069H4.12908C3.90273 19.2069 3.68566 19.117 3.5256 18.9569C3.36555 18.7969 3.27563 18.5798 3.27563 18.3534C3.27563 18.1271 3.36555 17.91 3.5256 17.75C3.68566 17.5899 3.90273 17.5 4.12908 17.5H30.8705C31.0968 17.5 31.3139 17.5899 31.4739 17.75C31.634 17.91 31.7239 18.1271 31.7239 18.3534C31.7239 18.5798 31.634 18.7969 31.4739 18.9569C31.3139 19.117 31.0968 19.2069 30.8705 19.2069H11.8101" stroke="#4C241D" stroke-width="2.68449" stroke-linecap="round" stroke-linejoin="round"/>
<path d="M14.0859 32.2931H16.9308" stroke="#4C241D" stroke-width="2.68449" stroke-linecap="round" stroke-linejoin="round"/>
<path d="M33.431 34H2.13794" stroke="#4C241D" stroke-width="2.68449" stroke-linecap="round" stroke-linejoin="round"/>
</svg>
