<svg width="15" height="12" viewBox="0 0 15 12" fill="none" xmlns="http://www.w3.org/2000/svg">
<path d="M14.0259 6.5063C14.2483 6.28364 14.3732 5.98182 14.3732 5.66713C14.3732 5.35244 14.2483 5.05062 14.0259 4.82796L9.54827 0.347922C9.3255 0.125151 9.02336 -2.3717e-07 8.70832 -2.47621e-07C8.39327 -2.58073e-07 8.09113 0.125151 7.86836 0.347922C7.64559 0.570693 7.52044 0.872835 7.52044 1.18788C7.52044 1.50293 7.64559 1.80507 7.86836 2.02784L10.3194 4.47963L1.18748 4.47963C0.872539 4.47963 0.570494 4.60474 0.347795 4.82744C0.125096 5.05014 -1.54927e-05 5.35219 -1.55065e-05 5.66713C-1.55203e-05 5.98207 0.125096 6.28412 0.347795 6.50682C0.570494 6.72952 0.872539 6.85463 1.18748 6.85463L10.3194 6.85463L7.86836 9.30563C7.75805 9.41594 7.67056 9.54689 7.61086 9.69101C7.55116 9.83513 7.52044 9.98959 7.52044 10.1456C7.52044 10.3016 7.55116 10.4561 7.61086 10.6002C7.67056 10.7443 7.75805 10.8752 7.86836 10.9855C7.97866 11.0959 8.10961 11.1834 8.25373 11.243C8.39785 11.3027 8.55232 11.3335 8.70832 11.3335C8.86431 11.3335 9.01878 11.3027 9.1629 11.243C9.30702 11.1834 9.43797 11.0959 9.54827 10.9855L14.0259 6.5063Z" fill="white"/>
</svg>
