<svg width="34" height="34" viewBox="0 0 34 34" fill="none" xmlns="http://www.w3.org/2000/svg">
<path d="M17 32.9375C25.802 32.9375 32.9375 25.802 32.9375 17C32.9375 8.19796 25.802 1.0625 17 1.0625C8.19796 1.0625 1.0625 8.19796 1.0625 17C1.0625 25.802 8.19796 32.9375 17 32.9375Z" fill="#3E4347"/>
<path d="M3.3469 9.56252L1.91252 8.12815C0.796899 7.01252 0.796899 5.20627 1.91252 4.14377L4.14377 1.91252C5.2594 0.796899 7.06565 0.796899 8.12815 1.91252L9.56252 3.3469L7.91565 4.99377L6.48127 3.5594C6.3219 3.40002 6.00315 3.40002 5.79065 3.5594L3.5594 5.79065C3.40002 5.95002 3.40002 6.26877 3.5594 6.48127L4.99377 7.91565L3.3469 9.56252ZM30.6531 24.4375L32.0875 25.8719C33.2031 26.9875 33.2031 28.7938 32.0875 29.8563L29.8563 32.0875C28.7406 33.2031 26.9344 33.2031 25.8719 32.0875L24.4375 30.6531L26.0844 29.0063L27.5188 30.4406C27.6781 30.6 27.9969 30.6 28.2094 30.4406L30.4406 28.2094C30.6 28.05 30.6 27.7313 30.4406 27.5188L29.0063 26.0844L30.6531 24.4375Z" fill="#3E4347"/>
<path d="M17 29.4312C23.8656 29.4312 29.4312 23.8656 29.4312 17C29.4312 10.1344 23.8656 4.56873 17 4.56873C10.1344 4.56873 4.56873 10.1344 4.56873 17C4.56873 23.8656 10.1344 29.4312 17 29.4312Z" fill="#F2B200"/>
<path d="M21.0375 6.05627C18.3812 4.67502 14.1844 7.33127 14.6625 9.56252C15.1406 11.7938 20.6125 13.3875 22.1 16.5219C23.5875 19.6563 24.2781 20.6656 26.9344 18.5406C29.5375 16.3625 30.7594 11.2094 21.0375 6.05627Z" fill="#B47D56"/>
<path d="M20.6125 7.33124C22.4187 7.33124 19.4969 8.34061 17.7969 9.82811C16.9469 10.5719 17.3187 7.33124 20.6125 7.33124ZM24.4906 9.93436C26.2969 9.93436 23.375 10.9437 21.6219 12.4312C20.825 13.1219 21.1969 9.93436 24.4906 9.93436ZM26.8812 13.9187C28.6875 13.9187 25.7656 14.9281 24.0125 16.4156C23.2156 17.1062 23.6406 13.9187 26.8812 13.9187Z" fill="#89664C"/>
<path d="M5.68438 20.1875C4.67501 17.6375 8.02188 14.5031 10.2 15.3C12.4313 16.0969 13.2281 21.0906 16.15 22.95C19.0719 24.7563 20.0281 25.5531 17.4781 27.4656C14.875 29.3781 9.45626 29.4844 5.68438 20.1875Z" fill="#B47D56"/>
<path d="M7.11877 20.8781C6.85314 22.4188 8.28752 20.0813 10.0938 18.8594C10.9438 18.275 7.59689 18.0625 7.11877 20.8781ZM8.92502 24.1188C8.65939 25.6594 10.0938 23.3219 11.9 22.1C12.75 21.5156 9.40314 21.3031 8.92502 24.1188ZM12.1125 26.5094C11.8469 28.05 13.2813 25.7125 15.0875 24.4906C15.9375 23.9063 12.6438 23.6406 12.1125 26.5094Z" fill="#89664C"/>
<path d="M13.6 6.90626C12.4312 5.79063 12.4312 5.79063 9.03124 9.35001C7.17186 11.3156 6.21561 13.3875 6.85311 13.9719C8.02186 15.0875 8.02186 15.0875 11.3687 11.5281C13.2812 9.61563 14.2375 7.54376 13.6 6.90626ZM27.3594 21.3563C26.4031 20.0813 26.4031 20.0813 22.525 22.8438C20.3469 24.3844 19.0719 26.1906 19.55 26.8813C20.5062 28.1563 20.5062 28.1563 24.3844 25.3938C26.5625 23.8531 27.8906 22.0469 27.3594 21.3563ZM20.5062 17.6375C21.1969 16.0438 21.1969 16.0438 16.5219 13.8656C13.9187 12.6438 11.5281 12.3781 11.1562 13.2281C10.4656 14.8219 10.4656 14.8219 15.1406 17C17.6906 18.2219 20.0812 18.4875 20.5062 17.6375Z" fill="#699635"/>
<path d="M23.1094 20.0812C23.2156 18.9125 22.2594 19.4968 20.5063 19.4437C18.7531 19.3375 19.2313 20.7187 19.3375 21.8343C19.3906 22.95 20.0813 22.0468 22.6313 22.1C23.5875 22.1531 22.95 21.25 23.1094 20.0812Z" fill="#ED4C5C"/>
<path d="M15.8844 18.1156C14.5562 17.6375 14.9812 18.5407 14.2906 19.8157C13.6 21.0907 15.4062 21.1438 16.7344 21.4625C18.0625 21.7813 17.2125 20.9844 18.1156 19.125C18.4875 18.4344 17.2125 18.5938 15.8844 18.1156Z" fill="#FFCE31"/>
<path d="M13.0157 10.0406C11.6875 9.56251 12.1125 10.4656 11.4219 11.7406C10.7313 13.0156 12.5375 13.0688 13.8657 13.3875C15.1938 13.7063 14.3438 12.9094 15.2469 11.05C15.6188 10.3594 14.3438 10.5188 13.0157 10.0406Z" fill="#ED4C5C"/>
<path d="M7.43753 13.9188C6.1094 13.4406 6.5344 14.3437 5.84378 15.6187C5.15315 16.8937 6.9594 16.9469 8.28753 17.2656C9.61565 17.5844 8.76565 16.7875 9.66878 14.9281C10.0407 14.1844 8.76565 14.3438 7.43753 13.9188Z" fill="#FFCE31"/>
</svg>
